<svg xmlns="http://www.w3.org/2000/svg" viewBox="0 0 874.52 766.12"><defs><style>.cls-1{fill:#00cbd4;}</style></defs><title>Asset 6</title><g id="Layer_2" data-name="Layer 2"><g id="Layer_1-2" data-name="Layer 1"><rect class="cls-1" x="181.51" y="8.37" width="83.27" height="749.39"/><path class="cls-1" d="M103.9,645.37a383.07,383.07,0,0,1-3.65-520.68l73.81,67.47a283.06,283.06,0,0,0,2.71,384.72Z"/><path class="cls-1" d="M411.13,766.12a382.23,382.23,0,0,1-201.63-57.3l52.7-85a282.27,282.27,0,0,0,148.93,42.29c156.08,0,283.06-127,283.06-283.06S567.21,100,411.13,100a282.4,282.4,0,0,0-148.94,42.29l-52.7-85A383.15,383.15,0,1,1,411.13,766.12Z"/><path class="cls-1" d="M795.73,328.64,790.27,8.37h-95v92.4C769.06,179.59,794.76,263.16,795.73,328.64Z"/><path class="cls-1" d="M804.59,727.36c-.52-.64-1.08-1.33-1.67-2-7.48-9.17-20-24.51-28-42.92-18.11-41.73-56.75-56.08-142.55-52.95-4.9.18-11.41.75-18.3,1.36-26.09,2.28-61.82,5.42-97.55-3.7C470,615.23,435.12,584.94,415.6,539.52L498.29,504c16.52,38.43,46.65,42.53,107.93,37.15,8.07-.71,15.69-1.37,22.88-1.64,36-1.31,82.68-1,124.49,12.8,48.82,16.17,83.78,47.89,103.9,94.26,3,7,10.32,15.92,15.15,21.83l1.88,2.31Z"/></g></g></svg>